<?xml version="1.0" encoding="UTF-8"?>
<svg id="Layer_1" data-name="Layer 1" xmlns="http://www.w3.org/2000/svg" viewBox="0 0 200 70">
  <defs>
    <style>
      .cls-1 {
        fill: #f1f2f2;
      }

      .cls-2 {
        fill: #231f20;
      }
    </style>
  </defs>
  <path class="cls-2" d="M10.57,49.36c-2.23-.04-4.04-1.16-5.38-3.34-1.27-2.06-1.94-5.1-1.98-9.06v-.78s6.07,.2,6.07,.2v.73c0,4.56,.47,6.35,.86,7.04,.09,.17,.17,.27,.22,.33,.08-.09,.2-.26,.35-.58,.58-1.19,.88-3.47,.88-6.78v-.21l-.04-1.31c-.03-1.98-.08-4.21-.16-6.62-.08-2.4-.24-4.99-.48-7.69l-.06-.74,7.58-.79v.83c0,3.25-.06,6.2-.18,8.75-.12,2.55-.25,4.82-.39,6.75-.02,.51-.06,1.03-.1,1.53-.55,7.79-2.93,11.74-7.07,11.74h-.11Z"/>
  <path class="cls-1" d="M17.68,20.59c0,3.26-.06,6.17-.18,8.71-.12,2.55-.25,4.79-.39,6.73-.03,.52-.06,1.03-.1,1.52-.52,7.36-2.63,11.04-6.32,11.04h-.11c-1.96-.04-3.54-1.03-4.74-2.98-1.21-1.95-1.83-4.84-1.87-8.67l4.57,.15c0,3.81,.32,6.28,.95,7.41,.29,.52,.58,.78,.88,.78,.34,0,.69-.36,1.03-1.07,.63-1.29,.95-3.66,.95-7.1v-.21c-.01-.43-.03-.88-.04-1.33-.03-1.99-.08-4.2-.16-6.63s-.24-5-.49-7.73l6.02-.63Z"/>
  <path class="cls-2" d="M29.01,48.97c-1.91,0-3.68-.67-5.25-2-1.52-1.28-2.74-3.02-3.64-5.16-.89-2.12-1.34-4.5-1.34-7.06s.45-4.94,1.34-7.06c.9-2.14,2.13-3.87,3.64-5.16,1.57-1.32,3.33-2,5.25-2s3.7,.67,5.26,2c1.52,1.28,2.74,3.02,3.64,5.16,.89,2.12,1.33,4.5,1.33,7.06s-.45,4.94-1.33,7.06c-.89,2.14-2.12,3.88-3.64,5.16-1.57,1.32-3.34,2-5.26,2Zm0-23.96c-.51,0-1.01,.37-1.49,1.09-.58,.87-1.06,2.06-1.42,3.56-.37,1.52-.55,3.24-.55,5.1s.19,3.58,.55,5.1c.36,1.49,.83,2.69,1.42,3.56,.48,.72,.99,1.09,1.49,1.09s1.01-.37,1.5-1.09c.59-.86,1.06-2.06,1.41-3.55,.36-1.52,.54-3.24,.54-5.1s-.18-3.58-.54-5.1c-.35-1.49-.83-2.68-1.41-3.55-.49-.72-1-1.09-1.5-1.09Z"/>
  <path class="cls-1" d="M29.01,21.3c1.75,0,3.35,.61,4.78,1.82,1.43,1.21,2.58,2.84,3.43,4.88,.85,2.04,1.28,4.29,1.28,6.77s-.43,4.73-1.28,6.77c-.85,2.04-1.99,3.66-3.43,4.88-1.43,1.21-3.03,1.82-4.78,1.82s-3.33-.61-4.76-1.82c-1.43-1.21-2.58-2.84-3.44-4.88-.86-2.04-1.29-4.29-1.29-6.77s.43-4.73,1.29-6.77c.86-2.04,2-3.66,3.44-4.88,1.43-1.21,3.02-1.82,4.76-1.82Zm0,2.97c-.77,0-1.48,.47-2.11,1.42s-1.14,2.21-1.52,3.8-.57,3.35-.57,5.27,.19,3.69,.57,5.27c.38,1.59,.89,2.85,1.52,3.8,.63,.95,1.34,1.42,2.11,1.42s1.48-.47,2.12-1.42c.64-.95,1.15-2.21,1.52-3.8,.37-1.59,.56-3.34,.56-5.27s-.19-3.69-.56-5.27-.88-2.85-1.52-3.8-1.35-1.42-2.12-1.42Z"/>
  <polygon class="cls-2" points="49.13 50.16 49.13 35.4 46.63 35.4 46.63 48.2 39.92 49.06 40.32 19.41 46.63 19.38 46.63 30.85 49.13 30.85 49.13 20.59 56.22 20.52 55.04 50.16 49.13 50.16"/>
  <path class="cls-1" d="M45.88,31.6h4v-10.26l5.56-.06-1.12,28.13h-4.44v-14.76h-4v12.89l-5.2,.67,.38-28.05,4.82-.02v11.46Z"/>
  <polygon class="cls-2" points="64.66 37.74 64.72 48.94 57.89 48.94 57.77 19.81 64.44 19.41 67.56 31.24 67.56 21.73 74.22 21.39 74.26 48.96 67.79 49.46 64.66 37.74"/>
  <path class="cls-1" d="M68.31,37.03v-14.59l5.16-.27,.04,26.09-5.16,.4-4.48-16.78,.1,16.3h-5.33l-.11-27.67,5.35-.32,4.44,16.83Z"/>
  <path class="cls-2" d="M84.72,20.98l5.9-.39c.25-.01,.48-.02,.7-.02,2.19,0,4.12,.62,5.75,1.85,1.61,1.21,2.86,2.88,3.74,4.99,.86,2.07,1.31,4.32,1.35,6.7v.43c0,2.21-.39,4.4-1.16,6.51-.78,2.15-2.04,3.99-3.73,5.47-1.72,1.5-3.92,2.38-6.53,2.59l-6.01,.42V20.98Zm6.7,23.61c1.01-.24,1.82-.85,2.48-1.86,.88-1.36,1.47-3.08,1.74-5.1,.13-.98,.2-1.96,.2-2.93,0-1.1-.13-2.45-.38-4.03-.24-1.51-.81-2.93-1.68-4.23-.64-.94-1.42-1.48-2.36-1.64v19.79Z"/>
  <path class="cls-1" d="M90.67,21.34c.23-.01,.44-.02,.65-.02,2.03,0,3.8,.56,5.3,1.69,1.5,1.13,2.67,2.69,3.49,4.67,.83,1.99,1.26,4.13,1.29,6.43v.42c0,2.13-.37,4.22-1.11,6.25-.74,2.04-1.92,3.76-3.52,5.16-1.61,1.4-3.64,2.21-6.1,2.41l-5.2,.36V21.68l5.2-.34Zm0,24.11c1.62-.08,2.91-.84,3.86-2.3s1.56-3.26,1.86-5.41c.14-1.02,.21-2.02,.21-3.03,0-1.14-.13-2.53-.39-4.15s-.86-3.14-1.8-4.53c-.91-1.35-2.11-2.02-3.58-2.02h-.15v21.44Z"/>
  <path class="cls-2" d="M111.54,48.97c-1.48,0-2.76-.47-3.81-1.38-.99-.87-1.83-2.03-2.48-3.45-.63-1.37-1.15-2.93-1.53-4.65-.37-1.68-.65-3.45-.83-5.24-.18-1.78-.29-3.53-.35-5.2-.03-1.01-.04-1.96-.04-2.84,0-.59,0-1.35,.03-2.29,.02-.94,.05-1.82,.11-2.63l.09-1.88h6.7l-.06,2.12c-.03,.91-.05,2.11-.08,3.59v1.11c0,1.16,.01,2.52,.04,4.06,.02,1.52,.09,3.19,.21,4.94,.11,1.74,.28,3.37,.49,4.82,.21,1.42,.48,2.57,.83,3.42,.27,.66,.52,.89,.68,.89,.31,0,.61-.56,.72-.81,.36-.77,.67-1.8,.92-3.07,.26-1.31,.47-2.77,.64-4.34,.16-1.58,.29-3.19,.38-4.77,.09-1.59,.15-3.07,.18-4.39,.03-1.34,.05-2.42,.07-3.24v-1.96h6.03l.06,1.81c.01,.49,.02,1.09,.02,1.8,0,.36,0,.95,0,1.77,0,.84-.06,2.03-.14,3.54-.09,1.53-.25,3.13-.46,4.77-.22,1.64-.52,3.26-.91,4.81-.39,1.57-.91,3-1.53,4.26-.65,1.31-1.45,2.37-2.4,3.17-1,.84-2.2,1.27-3.56,1.27Z"/>
  <path class="cls-1" d="M111.54,48.23c-1.29,0-2.4-.4-3.31-1.2s-1.68-1.87-2.29-3.2c-.62-1.33-1.11-2.83-1.48-4.49s-.64-3.38-.82-5.15c-.18-1.77-.29-3.49-.34-5.15-.03-1-.04-1.94-.04-2.82,0-.58,0-1.34,.03-2.28,.02-.93,.05-1.8,.1-2.6l.06-1.18h5.22l-.04,1.35c-.03,.91-.05,2.11-.08,3.6v1.12c0,1.17,.01,2.53,.04,4.08s.1,3.21,.21,4.98c.11,1.77,.28,3.4,.5,4.88s.51,2.68,.88,3.59c.37,.91,.83,1.36,1.37,1.36s1.01-.41,1.4-1.24c.39-.83,.71-1.91,.98-3.25,.27-1.34,.48-2.81,.65-4.41s.29-3.2,.38-4.81c.09-1.61,.15-3.08,.18-4.42,.03-1.34,.05-2.42,.07-3.25v-1.22h4.55l.04,1.09c.01,.48,.02,1.07,.02,1.77,0,.36,0,.94,0,1.76,0,.82-.05,1.99-.14,3.5-.09,1.52-.24,3.09-.46,4.71s-.51,3.2-.9,4.72-.87,2.89-1.48,4.11c-.6,1.22-1.34,2.19-2.21,2.92-.87,.73-1.89,1.09-3.08,1.09Z"/>
  <path class="cls-2" d="M122.24,46.95l.72-.27c1.74-.64,2.94-1.39,3.56-2.24,.52-.69,.77-1.42,.77-2.22,0-.06-.01-.3-.11-1.16-.04-.39-.25-1.18-.99-2.65-.62-1.24-1.33-2.52-2.12-3.81-.96-1.55-1.8-3.09-2.5-4.59-.59-1.28-.89-2.51-.89-3.67,0-.19,.02-.55,.16-1.62,.14-1.02,1.04-2.01,2.83-3.09,1.65-1,4.23-1.73,7.87-2.22l.76-.1,.5,4.32-.79,.05c-2.71,.18-3.54,.77-3.79,1.11-.22,.3-.33,.64-.33,1.04,0,.26,.09,.79,.5,1.83,.35,.88,1,2.09,1.92,3.61,.93,1.55,1.78,3.18,2.52,4.87,.76,1.68,1.15,3.39,1.15,5.07,0,.05,0,.5,0,1.35,0,1.05-.75,2.34-2.26,3.96-1.46,1.56-3.84,2.89-7.28,4.07l-.68,.23-1.51-3.86Z"/>
  <path class="cls-1" d="M131.95,22.94c-2.31,.15-3.76,.62-4.34,1.41-.32,.43-.48,.93-.48,1.49,0,.48,.18,1.18,.55,2.1s1.03,2.16,1.98,3.72c.91,1.52,1.74,3.12,2.48,4.78,.72,1.6,1.08,3.19,1.08,4.76,0,.05,0,.5,0,1.34,0,.84-.69,1.99-2.06,3.45-1.36,1.45-3.69,2.75-6.98,3.88l-.97-2.48c1.89-.7,3.19-1.53,3.9-2.49,.61-.81,.91-1.7,.91-2.67,0-.17-.04-.58-.11-1.25-.08-.67-.43-1.63-1.07-2.9s-1.35-2.56-2.15-3.87c-.95-1.54-1.77-3.04-2.46-4.51-.55-1.18-.82-2.3-.82-3.35,0-.25,.05-.76,.15-1.52s.93-1.61,2.48-2.55,4.08-1.64,7.58-2.11l.32,2.78Z"/>
  <path class="cls-2" d="M134.14,46.95l.72-.26c1.74-.64,2.94-1.39,3.56-2.24,.52-.69,.77-1.42,.77-2.22,0-.06-.01-.3-.11-1.16-.04-.39-.25-1.18-.99-2.65-.62-1.25-1.34-2.53-2.12-3.81-.96-1.55-1.8-3.1-2.5-4.59-.59-1.28-.89-2.51-.89-3.67,0-.19,.02-.55,.16-1.62,.14-1.02,1.04-2.01,2.83-3.09,1.65-1,4.23-1.73,7.87-2.22l.76-.1,.5,4.32-.79,.05c-2.71,.18-3.54,.77-3.79,1.11-.22,.3-.33,.64-.33,1.04,0,.27,.09,.8,.5,1.83,.35,.88,1,2.09,1.92,3.61,.93,1.55,1.78,3.18,2.52,4.87,.76,1.69,1.15,3.39,1.15,5.07v1.35c-.02,1.05-.76,2.34-2.27,3.96-1.46,1.56-3.84,2.89-7.28,4.07l-.68,.23-1.51-3.86Z"/>
  <path class="cls-1" d="M143.86,22.94c-2.31,.15-3.76,.62-4.34,1.41-.32,.43-.48,.93-.48,1.49,0,.48,.18,1.18,.55,2.1s1.03,2.16,1.98,3.72c.91,1.52,1.74,3.12,2.48,4.78,.72,1.6,1.09,3.19,1.09,4.76,0,.05,0,.5,0,1.34,0,.84-.69,1.99-2.06,3.45-1.37,1.45-3.69,2.75-6.98,3.88l-.97-2.48c1.89-.7,3.19-1.53,3.9-2.49,.61-.81,.91-1.7,.91-2.67,0-.17-.04-.58-.11-1.25-.08-.67-.43-1.63-1.07-2.9s-1.35-2.56-2.15-3.87c-.95-1.54-1.77-3.04-2.46-4.51-.55-1.18-.82-2.3-.82-3.35,0-.25,.05-.76,.15-1.52s.93-1.61,2.48-2.55,4.08-1.64,7.58-2.11l.32,2.78Z"/>
  <path class="cls-2" d="M155.66,48.97c-1.91,0-3.68-.67-5.25-2-1.52-1.28-2.74-3.02-3.64-5.16-.89-2.12-1.34-4.5-1.34-7.06s.45-4.94,1.34-7.06c.9-2.14,2.13-3.87,3.64-5.16,1.57-1.32,3.33-2,5.25-2s3.7,.67,5.26,2c1.52,1.28,2.74,3.02,3.64,5.16,.88,2.12,1.33,4.5,1.33,7.06s-.45,4.94-1.33,7.06c-.89,2.14-2.12,3.88-3.64,5.16-1.57,1.32-3.34,2-5.26,2Zm0-23.96c-.5,0-1.01,.37-1.49,1.09-.58,.87-1.06,2.06-1.42,3.56-.37,1.52-.55,3.24-.55,5.1s.19,3.58,.55,5.1c.36,1.49,.83,2.69,1.42,3.56,.48,.72,.99,1.09,1.49,1.09s1.01-.37,1.5-1.09c.59-.86,1.06-2.06,1.42-3.55,.36-1.52,.54-3.24,.54-5.1s-.18-3.58-.54-5.1c-.35-1.49-.83-2.68-1.42-3.55-.49-.72-1-1.09-1.5-1.09Z"/>
  <path class="cls-1" d="M155.66,21.3c1.75,0,3.35,.61,4.78,1.82,1.43,1.21,2.58,2.84,3.43,4.88,.85,2.04,1.28,4.29,1.28,6.77s-.42,4.73-1.28,6.77c-.85,2.04-1.99,3.66-3.43,4.88-1.43,1.21-3.03,1.82-4.78,1.82s-3.33-.61-4.76-1.82c-1.43-1.21-2.58-2.84-3.44-4.88-.86-2.04-1.29-4.29-1.29-6.77s.43-4.73,1.29-6.77c.86-2.04,2-3.66,3.44-4.88,1.43-1.21,3.02-1.82,4.76-1.82Zm0,2.97c-.77,0-1.48,.47-2.11,1.42s-1.14,2.21-1.52,3.8-.57,3.35-.57,5.27,.19,3.69,.57,5.27c.38,1.59,.89,2.85,1.52,3.8,.63,.95,1.34,1.42,2.11,1.42s1.48-.47,2.12-1.42c.64-.95,1.15-2.21,1.52-3.8,.38-1.59,.56-3.34,.56-5.27s-.19-3.69-.56-5.27c-.37-1.59-.88-2.85-1.52-3.8-.64-.95-1.35-1.42-2.12-1.42Z"/>
  <polygon class="cls-2" points="166.68 48.96 166.68 20.02 173.12 19.63 173.37 42.26 178.6 42.26 178.6 48.96 166.68 48.96"/>
  <path class="cls-1" d="M172.38,20.42l.25,22.58h5.22v5.2h-10.42V20.73l4.95-.3Z"/>
  <path class="cls-2" d="M179.34,20.98l5.9-.39c.25-.01,.48-.02,.7-.02,2.19,0,4.12,.62,5.75,1.85,1.6,1.2,2.86,2.88,3.74,4.99,.86,2.07,1.31,4.32,1.35,6.7v.43c0,2.21-.39,4.4-1.16,6.51-.79,2.15-2.04,3.99-3.74,5.47-1.72,1.5-3.92,2.38-6.53,2.59l-6.01,.42V20.98Zm6.7,23.61c1.01-.24,1.82-.85,2.48-1.86,.88-1.36,1.47-3.07,1.74-5.1,.13-.98,.2-1.97,.2-2.93,0-1.1-.13-2.46-.38-4.03-.24-1.51-.81-2.93-1.68-4.23-.64-.94-1.42-1.48-2.36-1.64v19.79Z"/>
  <path class="cls-1" d="M185.29,21.34c.23-.01,.44-.02,.65-.02,2.03,0,3.8,.56,5.3,1.69,1.5,1.13,2.67,2.69,3.5,4.67,.82,1.99,1.26,4.13,1.29,6.43v.42c0,2.13-.37,4.22-1.11,6.25-.74,2.04-1.92,3.76-3.52,5.16-1.61,1.4-3.64,2.21-6.1,2.41l-5.2,.36V21.68l5.2-.34Zm0,24.11c1.62-.08,2.91-.84,3.86-2.3,.95-1.46,1.56-3.26,1.86-5.41,.14-1.02,.21-2.02,.21-3.03,0-1.14-.13-2.53-.39-4.15-.26-1.62-.86-3.14-1.8-4.53-.91-1.35-2.11-2.02-3.58-2.02h-.15v21.44Z"/>
</svg>