<?xml version="1.0" encoding="UTF-8"?>
<svg xmlns="http://www.w3.org/2000/svg" xmlns:xlink="http://www.w3.org/1999/xlink" viewBox="0 0 600 400">
  <defs>
    <style>
      .cls-1 {
        fill: url(#_Безымянный_градиент_79);
      }

      .cls-1, .cls-2, .cls-3, .cls-4, .cls-5, .cls-6, .cls-7, .cls-8, .cls-9, .cls-10, .cls-11, .cls-12, .cls-13, .cls-14, .cls-15, .cls-16, .cls-17, .cls-18, .cls-19, .cls-20, .cls-21, .cls-22, .cls-23, .cls-24, .cls-25, .cls-26, .cls-27, .cls-28, .cls-29, .cls-30, .cls-31, .cls-32, .cls-33, .cls-34, .cls-35, .cls-36, .cls-37, .cls-38, .cls-39, .cls-40, .cls-41, .cls-42, .cls-43, .cls-44, .cls-45, .cls-46, .cls-47, .cls-48, .cls-49, .cls-50, .cls-51, .cls-52, .cls-53, .cls-54 {
        mix-blend-mode: multiply;
      }

      .cls-1, .cls-55, .cls-17, .cls-28, .cls-35, .cls-36, .cls-37, .cls-56, .cls-48, .cls-49 {
        opacity: .8;
      }

      .cls-57 {
        fill: url(#_Безымянный_градиент_76-3);
      }

      .cls-57, .cls-58, .cls-59 {
        opacity: .3;
      }

      .cls-60 {
        fill: #3c0a3c;
      }

      .cls-2 {
        fill: url(#_Безымянный_градиент_82);
      }

      .cls-2, .cls-3, .cls-6, .cls-7, .cls-9, .cls-10, .cls-19, .cls-20, .cls-24, .cls-61, .cls-27, .cls-30, .cls-32, .cls-33, .cls-38, .cls-40, .cls-62, .cls-43, .cls-63, .cls-44, .cls-45, .cls-51, .cls-54 {
        opacity: .5;
      }

      .cls-3, .cls-5 {
        fill: #e889c0;
      }

      .cls-4 {
        fill: url(#_Безымянный_градиент_4);
      }

      .cls-64 {
        fill: #fff;
      }

      .cls-5, .cls-14, .cls-16, .cls-25, .cls-65, .cls-66 {
        opacity: .2;
      }

      .cls-67 {
        fill: #bf3743;
      }

      .cls-55, .cls-68, .cls-61, .cls-69, .cls-70, .cls-71, .cls-65, .cls-62, .cls-72, .cls-66, .cls-63, .cls-56, .cls-59 {
        mix-blend-mode: soft-light;
      }

      .cls-55, .cls-70, .cls-62, .cls-59 {
        fill: #ffc5aa;
      }

      .cls-6 {
        fill: url(#_Безымянный_градиент_92);
      }

      .cls-73 {
        fill: url(#_Безымянный_градиент_68);
      }

      .cls-7 {
        fill: url(#_Безымянный_градиент_101-2);
      }

      .cls-8 {
        fill: url(#_Безымянный_градиент_11);
      }

      .cls-74 {
        fill: url(#_Безымянный_градиент_132);
      }

      .cls-9 {
        fill: #a22e98;
      }

      .cls-10 {
        fill: url(#_Безымянный_градиент_80);
      }

      .cls-11 {
        fill: url(#_Безымянный_градиент_48);
      }

      .cls-75 {
        fill: #d1684a;
      }

      .cls-12 {
        fill: #d490c0;
      }

      .cls-76 {
        isolation: isolate;
      }

      .cls-13 {
        fill: url(#_Безымянный_градиент_50);
      }

      .cls-77 {
        fill: url(#_Безымянный_градиент_29-2);
      }

      .cls-14 {
        fill: url(#_Безымянный_градиент_11-2);
      }

      .cls-78 {
        fill: url(#_Безымянный_градиент_29);
      }

      .cls-15 {
        fill: url(#_Безымянный_градиент_122-2);
      }

      .cls-79 {
        fill: #150a34;
      }

      .cls-16 {
        fill: url(#_Безымянный_градиент_11-3);
      }

      .cls-80 {
        fill: #a2364a;
      }

      .cls-58 {
        fill: url(#_Безымянный_градиент_76);
      }

      .cls-17 {
        fill: url(#_Безымянный_градиент_183);
      }

      .cls-81 {
        fill: url(#_Безымянный_градиент_185);
      }

      .cls-18, .cls-32 {
        fill: #956188;
      }

      .cls-19 {
        fill: url(#_Безымянный_градиент_100);
      }

      .cls-20 {
        fill: url(#_Безымянный_градиент_94);
      }

      .cls-21 {
        fill: #ba6fc0;
      }

      .cls-82 {
        fill: url(#_Безымянный_градиент_23-3);
      }

      .cls-22 {
        fill: url(#_Безымянный_градиент_122-3);
      }

      .cls-23 {
        fill: url(#_Безымянный_градиент_13);
      }

      .cls-83 {
        fill: url(#_Безымянный_градиент_23-2);
      }

      .cls-68 {
        fill: #549dff;
      }

      .cls-24 {
        fill: url(#_Безымянный_градиент_48-6);
      }

      .cls-84 {
        fill: #ea6570;
      }

      .cls-25, .cls-29 {
        fill: #d46fc0;
      }

      .cls-61, .cls-66 {
        fill: #a0acd6;
      }

      .cls-26 {
        fill: url(#_Безымянный_градиент_129);
      }

      .cls-69 {
        fill: url(#_Безымянный_градиент_76-4);
      }

      .cls-85 {
        fill: url(#_Безымянный_градиент_23);
      }

      .cls-27 {
        fill: url(#_Безымянный_градиент_41-2);
      }

      .cls-28 {
        fill: url(#_Безымянный_градиент_183-2);
      }

      .cls-86 {
        fill: #591a3c;
      }

      .cls-71 {
        fill: url(#_Безымянный_градиент_76-2);
      }

      .cls-30 {
        fill: url(#_Безымянный_градиент_53);
      }

      .cls-31 {
        fill: url(#_Безымянный_градиент_48-4);
      }

      .cls-33 {
        fill: url(#_Безымянный_градиент_112);
      }

      .cls-34 {
        fill: url(#_Безымянный_градиент_122);
      }

      .cls-35 {
        fill: url(#_Безымянный_градиент_136-2);
      }

      .cls-87 {
        fill: url(#_Безымянный_градиент_75);
      }

      .cls-36 {
        fill: url(#_Безымянный_градиент_79-2);
      }

      .cls-37 {
        fill: url(#_Безымянный_градиент_58);
      }

      .cls-38 {
        fill: url(#_Безымянный_градиент_101);
      }

      .cls-39 {
        fill: url(#_Безымянный_градиент_129-2);
      }

      .cls-88, .cls-72 {
        fill: #c798b7;
      }

      .cls-40 {
        fill: url(#_Безымянный_градиент_37);
      }

      .cls-65 {
        fill: #e1ffff;
      }

      .cls-41 {
        fill: url(#_Безымянный_градиент_13-2);
      }

      .cls-89 {
        clip-path: url(#clippath);
      }

      .cls-90 {
        fill: #2e1a51;
      }

      .cls-91 {
        fill: none;
      }

      .cls-42 {
        fill: url(#_Безымянный_градиент_93);
      }

      .cls-92 {
        fill: url(#_Безымянный_градиент_68-2);
      }

      .cls-43 {
        fill: url(#_Безымянный_градиент_48-7);
      }

      .cls-63 {
        fill: #ffa9c0;
      }

      .cls-93 {
        fill: url(#_Безымянный_градиент_111);
      }

      .cls-94 {
        fill: url(#_Безымянный_градиент_132-2);
      }

      .cls-44 {
        fill: url(#_Безымянный_градиент_55);
      }

      .cls-45 {
        fill: url(#_Безымянный_градиент_51);
      }

      .cls-46 {
        fill: #c789c0;
      }

      .cls-47 {
        fill: url(#_Безымянный_градиент_48-3);
      }

      .cls-56 {
        fill: #ffcaa2;
      }

      .cls-48 {
        fill: url(#_Безымянный_градиент_57);
      }

      .cls-49 {
        fill: url(#_Безымянный_градиент_136);
      }

      .cls-50 {
        fill: url(#_Безымянный_градиент_107);
      }

      .cls-51 {
        fill: url(#_Безымянный_градиент_48-5);
      }

      .cls-52 {
        fill: url(#_Безымянный_градиент_48-2);
      }

      .cls-53 {
        fill: url(#_Безымянный_градиент_49);
      }

      .cls-95 {
        fill: url(#linear-gradient);
        stroke: #000;
        stroke-miterlimit: 10;
        stroke-width: 3px;
      }

      .cls-54 {
        fill: url(#_Безымянный_градиент_41);
      }
    </style>
    <linearGradient id="linear-gradient" x1="154.14" y1="96.39" x2="445.86" y2="264.81" gradientTransform="translate(215.57 -159.24) rotate(45)" gradientUnits="userSpaceOnUse">
      <stop offset="0" stop-color="#fff"/>
      <stop offset="1" stop-color="#6aa9bc"/>
    </linearGradient>
    <clipPath id="clippath">
      <circle id="BackgroundCircle-2" data-name="BackgroundCircle" class="cls-91" cx="300" cy="180.6" r="168.4" transform="translate(-39.83 265.03) rotate(-45)"/>
    </clipPath>
    <linearGradient id="_Безымянный_градиент_23" data-name="Безымянный градиент 23" x1="300.3" y1="257.39" x2="300.3" y2="193.51" gradientUnits="userSpaceOnUse">
      <stop offset=".02" stop-color="#ff8b5b"/>
      <stop offset="1" stop-color="#ff6f6b"/>
    </linearGradient>
    <linearGradient id="_Безымянный_градиент_55" data-name="Безымянный градиент 55" x1="299.53" y1="244.16" x2="299.53" y2="193.57" gradientUnits="userSpaceOnUse">
      <stop offset=".01" stop-color="#ea9ed5"/>
      <stop offset="1" stop-color="#fff"/>
    </linearGradient>
    <linearGradient id="_Безымянный_градиент_112" data-name="Безымянный градиент 112" x1="298.98" y1="227.79" x2="298.98" y2="193.51" gradientUnits="userSpaceOnUse">
      <stop offset="0" stop-color="#fff"/>
      <stop offset=".99" stop-color="#c533a8"/>
    </linearGradient>
    <linearGradient id="_Безымянный_градиент_75" data-name="Безымянный градиент 75" x1="300" y1="351.17" x2="300" y2="230.3" gradientUnits="userSpaceOnUse">
      <stop offset="0" stop-color="#1d103f"/>
      <stop offset="1" stop-color="#2c154a"/>
    </linearGradient>
    <linearGradient id="_Безымянный_градиент_183" data-name="Безымянный градиент 183" x1="329.72" y1="313.22" x2="329.72" y2="250.48" gradientUnits="userSpaceOnUse">
      <stop offset="0" stop-color="#e2e2ff"/>
      <stop offset="1" stop-color="#3d3d93"/>
    </linearGradient>
    <linearGradient id="_Безымянный_градиент_183-2" data-name="Безымянный градиент 183" x1="320.03" y1="350.77" x2="320.03" y2="259.16" xlink:href="#_Безымянный_градиент_183"/>
    <linearGradient id="_Безымянный_градиент_57" data-name="Безымянный градиент 57" x1="251.31" y1="256.8" x2="341.54" y2="256.8" gradientUnits="userSpaceOnUse">
      <stop offset="0" stop-color="#3d3d93"/>
      <stop offset="1" stop-color="#e2e2ff"/>
    </linearGradient>
    <linearGradient id="_Безымянный_градиент_58" data-name="Безымянный градиент 58" x1="229.94" y1="275.82" x2="320.03" y2="275.82" gradientUnits="userSpaceOnUse">
      <stop offset="0" stop-color="#3d3d93"/>
      <stop offset="1" stop-color="#e2e2ff"/>
    </linearGradient>
    <linearGradient id="_Безымянный_градиент_23-2" data-name="Безымянный градиент 23" x1="245.26" y1="160.93" x2="245.26" y2="116.94" xlink:href="#_Безымянный_градиент_23"/>
    <linearGradient id="_Безымянный_градиент_136" data-name="Безымянный градиент 136" x1="244.43" y1="156.47" x2="244.43" y2="122.23" gradientUnits="userSpaceOnUse">
      <stop offset="0" stop-color="#fff"/>
      <stop offset=".99" stop-color="#d333a8"/>
    </linearGradient>
    <linearGradient id="_Безымянный_градиент_13" data-name="Безымянный градиент 13" x1="246.03" y1="160.97" x2="246.03" y2="146.71" gradientUnits="userSpaceOnUse">
      <stop offset=".01" stop-color="#d333a8"/>
      <stop offset="1" stop-color="#fff"/>
    </linearGradient>
    <linearGradient id="_Безымянный_градиент_23-3" data-name="Безымянный градиент 23" x1="7.51" y1="160.93" x2="7.51" y2="116.94" gradientTransform="translate(361.62) rotate(-180) scale(1 -1)" xlink:href="#_Безымянный_градиент_23"/>
    <linearGradient id="_Безымянный_градиент_136-2" data-name="Безымянный градиент 136" x1="6.68" y1="156.47" x2="6.68" y2="122.23" gradientTransform="translate(361.62) rotate(-180) scale(1 -1)" xlink:href="#_Безымянный_градиент_136"/>
    <linearGradient id="_Безымянный_градиент_13-2" data-name="Безымянный градиент 13" x1="8.27" y1="160.97" x2="8.27" y2="146.71" gradientTransform="translate(361.62) rotate(-180) scale(1 -1)" xlink:href="#_Безымянный_градиент_13"/>
    <linearGradient id="_Безымянный_градиент_185" data-name="Безымянный градиент 185" x1="299.74" y1="205.24" x2="299.74" y2="56.83" gradientUnits="userSpaceOnUse">
      <stop offset=".02" stop-color="#ffa574"/>
      <stop offset="1" stop-color="#ff998f"/>
    </linearGradient>
    <linearGradient id="_Безымянный_градиент_94" data-name="Безымянный градиент 94" x1="299.31" y1="100.24" x2="299.31" y2="56.12" gradientUnits="userSpaceOnUse">
      <stop offset="0" stop-color="#fff"/>
      <stop offset=".99" stop-color="#c133a8"/>
    </linearGradient>
    <linearGradient id="_Безымянный_градиент_68" data-name="Безымянный градиент 68" x1="251.79" y1="104.91" x2="289.62" y2="104.91" gradientUnits="userSpaceOnUse">
      <stop offset="0" stop-color="#963e50"/>
      <stop offset=".98" stop-color="#e06859"/>
    </linearGradient>
    <linearGradient id="_Безымянный_градиент_4" data-name="Безымянный градиент 4" x1="300.76" y1="159.34" x2="300.76" y2="142.72" gradientUnits="userSpaceOnUse">
      <stop offset=".01" stop-color="#b133a8"/>
      <stop offset=".28" stop-color="#cc79c6"/>
      <stop offset=".53" stop-color="#e1b2de"/>
      <stop offset=".74" stop-color="#f1dcf0"/>
      <stop offset=".9" stop-color="#fbf5fb"/>
      <stop offset="1" stop-color="#fff"/>
    </linearGradient>
    <linearGradient id="_Безымянный_градиент_11" data-name="Безымянный градиент 11" x1="300.27" y1="161.9" x2="300.27" y2="142.41" gradientUnits="userSpaceOnUse">
      <stop offset=".01" stop-color="#ec8ba8"/>
      <stop offset="1" stop-color="#fff"/>
    </linearGradient>
    <linearGradient id="_Безымянный_градиент_111" data-name="Безымянный градиент 111" x1="246.44" y1="95.7" x2="352.11" y2="95.7" gradientUnits="userSpaceOnUse">
      <stop offset="0" stop-color="#962439"/>
      <stop offset=".98" stop-color="#e06859"/>
    </linearGradient>
    <linearGradient id="_Безымянный_градиент_132" data-name="Безымянный градиент 132" x1="329.86" y1="133.95" x2="329.86" y2="119.17" gradientUnits="userSpaceOnUse">
      <stop offset="0" stop-color="#ffe5e1"/>
      <stop offset="1" stop-color="#ffe4e2"/>
    </linearGradient>
    <linearGradient id="_Безымянный_градиент_129" data-name="Безымянный градиент 129" x1="316.78" y1="119.87" x2="340.31" y2="119.87" gradientUnits="userSpaceOnUse">
      <stop offset="0" stop-color="#fff"/>
      <stop offset=".99" stop-color="#c533a8"/>
    </linearGradient>
    <linearGradient id="_Безымянный_градиент_29" data-name="Безымянный градиент 29" x1="332.47" y1="131.59" x2="325.83" y2="120.1" gradientUnits="userSpaceOnUse">
      <stop offset="0" stop-color="#704d43"/>
      <stop offset="1" stop-color="#33131e"/>
    </linearGradient>
    <linearGradient id="_Безымянный_градиент_101" data-name="Безымянный градиент 101" x1="318.41" y1="131.55" x2="340.99" y2="131.55" gradientUnits="userSpaceOnUse">
      <stop offset="0" stop-color="#fff"/>
      <stop offset=".99" stop-color="#b44ca8"/>
    </linearGradient>
    <linearGradient id="_Безымянный_градиент_132-2" data-name="Безымянный градиент 132" x1="-119.35" y1="133.95" x2="-119.35" y2="119.17" gradientTransform="translate(148.66) rotate(-180) scale(1 -1)" xlink:href="#_Безымянный_градиент_132"/>
    <linearGradient id="_Безымянный_градиент_129-2" data-name="Безымянный градиент 129" x1="-132.44" x2="-108.91" gradientTransform="translate(148.66) rotate(-180) scale(1 -1)" xlink:href="#_Безымянный_градиент_129"/>
    <linearGradient id="_Безымянный_градиент_29-2" data-name="Безымянный градиент 29" x1="-116.75" x2="-123.38" y2="120.1" gradientTransform="translate(148.66) rotate(-180) scale(1 -1)" xlink:href="#_Безымянный_градиент_29"/>
    <linearGradient id="_Безымянный_градиент_101-2" data-name="Безымянный градиент 101" x1="-130.81" x2="-108.22" gradientTransform="translate(148.66) rotate(-180) scale(1 -1)" xlink:href="#_Безымянный_градиент_101"/>
    <linearGradient id="_Безымянный_градиент_37" data-name="Безымянный градиент 37" x1="300.39" y1="185.96" x2="300.39" y2="180.2" gradientUnits="userSpaceOnUse">
      <stop offset="0" stop-color="#ffd1d1"/>
      <stop offset=".99" stop-color="#c933a8"/>
    </linearGradient>
    <linearGradient id="_Безымянный_градиент_41" data-name="Безымянный градиент 41" x1="329.03" y1="130.94" x2="329.03" y2="104.64" gradientUnits="userSpaceOnUse">
      <stop offset="0" stop-color="#fff"/>
      <stop offset=".99" stop-color="#d971c2"/>
    </linearGradient>
    <linearGradient id="_Безымянный_градиент_41-2" data-name="Безымянный градиент 41" x1="-117.65" y1="130.94" x2="-117.65" y2="104.64" gradientTransform="translate(152.71) rotate(-180) scale(1 -1)" xlink:href="#_Безымянный_градиент_41"/>
    <linearGradient id="_Безымянный_градиент_68-2" data-name="Безымянный градиент 68" x1="-55.67" x2="-17.84" gradientTransform="translate(291.37) rotate(-180) scale(1 -1)" xlink:href="#_Безымянный_градиент_68"/>
    <linearGradient id="_Безымянный_градиент_92" data-name="Безымянный градиент 92" x1="300.52" y1="158.96" x2="300.52" y2="119.93" gradientUnits="userSpaceOnUse">
      <stop offset=".01" stop-color="#ea9ed5"/>
      <stop offset="1" stop-color="#fff"/>
    </linearGradient>
    <linearGradient id="_Безымянный_градиент_100" data-name="Безымянный градиент 100" x1="299.69" y1="205.24" x2="299.69" y2="140.54" gradientUnits="userSpaceOnUse">
      <stop offset=".01" stop-color="#ae4fd5"/>
      <stop offset=".12" stop-color="#ba6adb"/>
      <stop offset=".34" stop-color="#d29fe8"/>
      <stop offset=".54" stop-color="#e5c8f2"/>
      <stop offset=".73" stop-color="#f3e6f9"/>
      <stop offset=".89" stop-color="#fcf8fd"/>
      <stop offset="1" stop-color="#fff"/>
    </linearGradient>
    <linearGradient id="_Безымянный_градиент_48" data-name="Безымянный градиент 48" x1="299.76" y1="78.11" x2="342.5" y2="78.11" gradientUnits="userSpaceOnUse">
      <stop offset=".01" stop-color="#9333a8"/>
      <stop offset="1" stop-color="#fff"/>
    </linearGradient>
    <linearGradient id="_Безымянный_градиент_48-2" data-name="Безымянный градиент 48" x1="296.21" y1="61.34" x2="316.12" y2="61.34" xlink:href="#_Безымянный_градиент_48"/>
    <linearGradient id="_Безымянный_градиент_48-3" data-name="Безымянный градиент 48" x1="290.26" y1="61.74" x2="308.51" y2="61.74" xlink:href="#_Безымянный_градиент_48"/>
    <linearGradient id="_Безымянный_градиент_48-4" data-name="Безымянный градиент 48" x1="284.47" y1="61.82" x2="308.19" y2="61.82" xlink:href="#_Безымянный_градиент_48"/>
    <linearGradient id="_Безымянный_градиент_122" data-name="Безымянный градиент 122" x1="268.74" y1="63.22" x2="288.93" y2="63.22" gradientUnits="userSpaceOnUse">
      <stop offset="0" stop-color="#fff"/>
      <stop offset=".99" stop-color="#9333a8"/>
    </linearGradient>
    <linearGradient id="_Безымянный_градиент_48-5" data-name="Безымянный градиент 48" x1="254.89" y1="109.95" x2="254.89" y2="76.85" xlink:href="#_Безымянный_градиент_48"/>
    <linearGradient id="_Безымянный_градиент_48-6" data-name="Безымянный градиент 48" x1="248.88" y1="119.87" x2="248.88" y2="92.2" xlink:href="#_Безымянный_градиент_48"/>
    <linearGradient id="_Безымянный_градиент_48-7" data-name="Безымянный градиент 48" x1="347.69" y1="107.08" x2="347.69" y2="82.82" xlink:href="#_Безымянный_градиент_48"/>
    <linearGradient id="_Безымянный_градиент_49" data-name="Безымянный градиент 49" x1="313.47" y1="174.67" x2="324.13" y2="174.67" gradientUnits="userSpaceOnUse">
      <stop offset=".01" stop-color="#b133a8"/>
      <stop offset="1" stop-color="#fff"/>
    </linearGradient>
    <linearGradient id="_Безымянный_градиент_50" data-name="Безымянный градиент 50" x1="-196.4" y1="174.67" x2="-185.75" y2="174.67" gradientTransform="translate(90.59) rotate(-180) scale(1 -1)" gradientUnits="userSpaceOnUse">
      <stop offset=".01" stop-color="#b133a8"/>
      <stop offset="1" stop-color="#fff"/>
    </linearGradient>
    <linearGradient id="_Безымянный_градиент_122-2" data-name="Безымянный градиент 122" x1="325.01" y1="111.11" x2="325.01" y2="97.2" xlink:href="#_Безымянный_градиент_122"/>
    <linearGradient id="_Безымянный_градиент_122-3" data-name="Безымянный градиент 122" x1="276.77" y1="111.11" x2="276.77" y2="97.35" xlink:href="#_Безымянный_градиент_122"/>
    <linearGradient id="_Безымянный_градиент_53" data-name="Безымянный градиент 53" x1="316.78" y1="179.76" x2="331.49" y2="179.76" gradientUnits="userSpaceOnUse">
      <stop offset=".01" stop-color="#ea9ed5"/>
      <stop offset="1" stop-color="#fff"/>
    </linearGradient>
    <linearGradient id="_Безымянный_градиент_51" data-name="Безымянный градиент 51" x1="-148.34" y1="179.76" x2="-163.05" y2="179.76" gradientTransform="translate(121.48) rotate(-180) scale(1 -1)" gradientUnits="userSpaceOnUse">
      <stop offset="0" stop-color="#fff"/>
      <stop offset=".99" stop-color="#ea9ed5"/>
    </linearGradient>
    <linearGradient id="_Безымянный_градиент_93" data-name="Безымянный градиент 93" x1="297.75" y1="133.99" x2="297.75" y2="106.86" gradientUnits="userSpaceOnUse">
      <stop offset=".01" stop-color="#ac4db8"/>
      <stop offset="1" stop-color="#fff"/>
    </linearGradient>
    <radialGradient id="_Безымянный_градиент_79" data-name="Безымянный градиент 79" cx="345.25" cy="132.12" fx="345.25" fy="132.12" r="20.53" gradientTransform="translate(7.4 100.27) scale(.94 .3)" gradientUnits="userSpaceOnUse">
      <stop offset="0" stop-color="#fff"/>
      <stop offset=".17" stop-color="#fdf8fc"/>
      <stop offset=".4" stop-color="#f9e7f4"/>
      <stop offset=".66" stop-color="#f3cae8"/>
      <stop offset=".95" stop-color="#eba3d7"/>
      <stop offset=".99" stop-color="#ea9ed5"/>
    </radialGradient>
    <radialGradient id="_Безымянный_градиент_79-2" data-name="Безымянный градиент 79" cx="276.19" fx="276.19" r="20.53" xlink:href="#_Безымянный_градиент_79"/>
    <linearGradient id="_Безымянный_градиент_76" data-name="Безымянный градиент 76" x1="332.98" y1="140.7" x2="332.98" y2="110.15" gradientUnits="userSpaceOnUse">
      <stop offset="0" stop-color="#ffe6d2"/>
      <stop offset="1" stop-color="#ffafbc"/>
    </linearGradient>
    <linearGradient id="_Безымянный_градиент_76-2" data-name="Безымянный градиент 76" y1="140.7" y2="110.15" xlink:href="#_Безымянный_градиент_76"/>
    <linearGradient id="_Безымянный_градиент_76-3" data-name="Безымянный градиент 76" x1="-132.42" x2="-132.42" gradientTransform="translate(133.87) rotate(-180) scale(1 -1)" xlink:href="#_Безымянный_градиент_76"/>
    <linearGradient id="_Безымянный_градиент_76-4" data-name="Безымянный градиент 76" x1="-132.42" y1="140.7" x2="-132.42" y2="110.15" gradientTransform="translate(133.87) rotate(-180) scale(1 -1)" xlink:href="#_Безымянный_градиент_76"/>
    <linearGradient id="_Безымянный_градиент_80" data-name="Безымянный градиент 80" x1="281.62" y1="217.23" x2="309.59" y2="217.23" gradientUnits="userSpaceOnUse">
      <stop offset="0" stop-color="#fff"/>
      <stop offset=".99" stop-color="#c533a8"/>
    </linearGradient>
    <linearGradient id="_Безымянный_градиент_82" data-name="Безымянный градиент 82" x1="296.09" y1="163.58" x2="305.3" y2="163.58" gradientUnits="userSpaceOnUse">
      <stop offset="0" stop-color="#fff"/>
      <stop offset=".99" stop-color="#ec8ba8"/>
    </linearGradient>
    <linearGradient id="_Безымянный_градиент_11-2" data-name="Безымянный градиент 11" x1="316.12" y1="159.81" x2="326.57" y2="159.81" xlink:href="#_Безымянный_градиент_11"/>
    <linearGradient id="_Безымянный_градиент_11-3" data-name="Безымянный градиент 11" x1="-135.04" y1="159.81" x2="-124.59" y2="159.81" gradientTransform="translate(150.39) rotate(-180) scale(1 -1)" xlink:href="#_Безымянный_градиент_11"/>
    <linearGradient id="_Безымянный_градиент_107" data-name="Безымянный градиент 107" x1="300.85" y1="205.24" x2="300.85" y2="174.42" gradientUnits="userSpaceOnUse">
      <stop offset=".01" stop-color="#ae0cd5"/>
      <stop offset=".09" stop-color="#b729da"/>
      <stop offset=".28" stop-color="#cd69e5"/>
      <stop offset=".46" stop-color="#df9fee"/>
      <stop offset=".63" stop-color="#ecc8f5"/>
      <stop offset=".78" stop-color="#f6e6fa"/>
      <stop offset=".91" stop-color="#fcf8fd"/>
      <stop offset="1" stop-color="#fff"/>
    </linearGradient>
  </defs>
  <g class="cls-76">
    <g id="Characters">
      <g id="Layer_3" data-name="Layer 3">
        <circle id="BackgroundCircle" class="cls-95" cx="300" cy="180.6" r="168.4" transform="translate(-39.83 265.03) rotate(-45)"/>
      </g>
      <g class="cls-89">
        <g id="bust">
          <path class="cls-85" d="M334.65,237.18s-10.86,20.21-34.91,20.21-33.8-17.69-33.8-17.69c3.78-10.75,4.42-31.21,4.5-40.88,.04-3.27,0-5.31,0-5.31l1.91,.06,55.06,1.62c.02,1.4,.06,2.77,.11,4.11v.02c.15,3.66,.42,7.09,.78,10.27,1.93,17.48,6.35,27.59,6.35,27.59Z"/>
          <path class="cls-44" d="M301.24,244.12c-17.44,1.51-29.71-50.02-29.71-50.02l.82-.54,55.06,1.62c.02,1.4,.06,2.77,.11,4.11v.02c.15,3.66-14.28,43.76-26.28,44.81Z"/>
          <path class="cls-33" d="M327.52,199.3v.02s-5.12,4.83-6.82,8.43c-1.7,3.6-9.85,21.88-20.88,19.89-11.03-1.99-29.11-28.61-29.11-28.61l-.27-.21c.04-3.27,0-5.31,0-5.31l56.97,1.68c.02,1.4,.06,2.77,.11,4.11Z"/>
          <path class="cls-87" d="M406.72,279.37c-7.01-3.2-15.31-7.77-24.1-12.85-1.72-1-3.68-6.4-5.27-7.36-4.36-2.62-7.4-.07-8.91-.97-5.55-3.31-6.75-4.09-6.75-4.09-3.98-7.77-5.84-8.37-9.63-7.42s-4.07-1.99-5.59-3.32c-1.52-1.33-8.23-8.15-9.55-9.66-1.33-1.52-4.61-3.4-4.61-3.4,0,0,1.27,2.83,1.55,4.82,.28,1.99,.79,2.05,.79,2.05-9.66,18-32.72,18.95-32.72,18.95,0,0-24.92,.88-34.58-17.12,0,0-.47-1.33-.19-3.32,.28-1.99,.87-4.48,.87-4.48,0,0-1.79,1.67-3.11,3.19-1.33,1.52-5.99,7.64-7.51,8.97-1.52,1.33-11.75,10.23-15.54,9.28-3.79-.95-7.96,1.33-11.94,9.09,0,0-13.12,7.99-26.62,14.68-1.12,.55-3.24-1.67-4.36-1.13-.94,.45-.87,3.65-1.8,4.07-15.35,7.01-27.11,12.24-27.1,57.15,0,0,57.29,10.41,89.61,12.64,116.42,8.03,170.28-10.5,170.28-10.5,0-36.72-7.88-52.28-23.23-59.29Z"/>
          <path class="cls-46" d="M336.91,233.7s2.79,2.21-2.26,9.92c-5.05,7.71-18.06,14.91-38.9,13.39s-32.4-17.74-32.05-21.12l4.34-4.68s.07,20.49,30.94,21.63c30.87,1.14,34.28-18.69,34.28-18.69l-1.12-4.39s3.87,3,4.77,3.95Z"/>
          <path class="cls-17" d="M359.66,250.48s-10.06,19.29-26.25,38.74c-16.19,19.45-35.67,24-35.67,24,0,0,32.87-2.27,47.77-20.46,14.91-18.19,16.17-38.65,16.17-38.65l-2.03-3.63Z"/>
          <path class="cls-28" d="M377.35,259.16s-17.16,31.33-47.49,56.84-71.27,33.08-71.27,33.08c0,0,25.82,5.58,50.94-3.52,25.12-9.09,68.49-67.21,71.94-80.22l-4.13-6.18Z"/>
          <path class="cls-48" d="M260.97,239.29s7.95,17.53,36.78,21.89c28.82,4.36,43.79-14.21,43.79-14.21,0,0-9.49,21.03-45.2,26.53-35.71,5.49-45.75-18-44.99-20.84s9.62-13.36,9.62-13.36Z"/>
          <path class="cls-37" d="M234.16,255.52s8.47,11.98,34.02,27.89c25.55,15.92,51.86,7.33,51.86,7.33,0,0-16.89,12.13-48.5,0-31.61-12.13-41.59-28.99-41.59-28.99,0,0,2.38-4.63,4.22-6.23Z"/>
          <path class="cls-65" d="M236.48,258.31s24.5,16.17,56.29,23.54c31.79,7.37,55.82-13.07,55.82-13.07,0,0-17.14,27.95-50.84,24.1-33.7-3.85-61.27-34.57-61.27-34.57Z"/>
          <path class="cls-65" d="M278.82,343.52s29.81-22.21,55.83-42.93c26.02-20.72,38.31-34.19,38.31-34.19,0,0-18.97,29.94-45.44,51.51-26.47,21.58-48.7,25.6-48.7,25.6Z"/>
          <path class="cls-65" d="M269.34,250.48s11.76,10.07,34.24,10.7c22.48,.63,32.97-17.02,32.97-17.02,0,0-6.69,10.96-28.67,12.22s-38.54-5.9-38.54-5.9Z"/>
          <path class="cls-79" d="M198.96,275.29s8.62,48.03,51.2,72.28c0,0-11.75-1.54-17.31-4.05-31.88-13.37-35.68-64.15-35.68-64.15,0,0,.79-4.11,1.8-4.07Z"/>
          <path class="cls-90" d="M203.32,276.43s-3.94,16.82,20.34,42.1c14.25,14.84,36.01,30.63,36.01,30.63l-10.25-.88s-48.45-33.78-48.45-72.49l2.35,.65Z"/>
          <path class="cls-21" d="M270.46,195.09c11.21,1.1,12.3,20.5,28.52,22.14,16.22,1.64,14.63-17.44,28.46-20.47l-.03-1.57-56.97-1.68,.02,1.58Z"/>
          <path class="cls-83" d="M248.66,156.47c-.96-1.31-2.01-2.61-3-3.45-1.58-1.34-3.71-2.94-5.28-5.23h-.01c-1.53-2.25-2.52-5.15-1.91-9.08,1.24-7.95-.37-13.26,.67-18.94,1.04-5.69,8.15-2.18,10.28,5.11,0,0,1.51,24.39,2.82,35.5,.21,1.79-1.48-1.07-3.57-3.91Z"/>
          <path class="cls-49" d="M247.24,142.73c.13,7.83,1.83,5.51,1.46,10.95-.07,1.02-.08,1.95-.04,2.79-.96-1.31-2.01-2.61-3-3.45-1.58-1.34-3.71-2.94-5.28-5.23,0,.01,.02,.02,.03,.03,1.28,1.44,6.39,5.91,5.78,4.02-.62-1.9-4.03-3.08-3.04-10.24,1-7.15,2.61-6.01,3.29-8.95s-2.34-8.67-4.23-7.01c-1.9,1.66-.43,5.12-1.47,8.1-1.04,2.99-1.28,9.9-1.28,9.9,0,0-.52-2.7,.24-7.67,.75-4.98-.87-13.75,2.65-13.74s7.23,13.61,7.23,13.61c0,0-2.46-.95-2.34,6.89Z"/>
          <path class="cls-23" d="M239.72,146.71s1.26,2.03,4.71,4.69,3.17,3.18,4.69,3.18,2.05-5.16,2.05-5.16c0,0,1.54,11.09,1.07,11.51s-1.5-3.32-5.75-7.11c-4.24-3.79-6.78-7.11-6.78-7.11Z"/>
          <path class="cls-82" d="M350.72,156.47c.96-1.31,2.01-2.61,3-3.45,1.58-1.34,3.71-2.94,5.28-5.23h.01c1.53-2.25,2.52-5.15,1.91-9.08-1.24-7.95,.37-13.26-.67-18.94-1.04-5.69-8.15-2.18-10.28,5.11,0,0-1.51,24.39-2.82,35.5-.21,1.79,1.48-1.07,3.57-3.91Z"/>
          <path class="cls-35" d="M352.14,142.73c-.13,7.83-1.83,5.51-1.46,10.95,.07,1.02,.08,1.95,.04,2.79,.96-1.31,2.01-2.61,3-3.45,1.58-1.34,3.71-2.94,5.28-5.23,0,.01-.02,.02-.03,.03-1.28,1.44-6.39,5.91-5.78,4.02,.62-1.9,4.03-3.08,3.04-10.24-1-7.15-2.61-6.01-3.29-8.95s2.34-8.67,4.23-7.01c1.9,1.66,.43,5.12,1.47,8.1,1.04,2.99,1.28,9.9,1.28,9.9,0,0,.52-2.7-.24-7.67-.75-4.98,.87-13.75-2.65-13.74s-7.23,13.61-7.23,13.61c0,0,2.46-.95,2.34,6.89Z"/>
          <path class="cls-41" d="M359.66,146.71s-1.26,2.03-4.71,4.69-3.17,3.18-4.69,3.18-2.05-5.16-2.05-5.16c0,0-1.54,11.09-1.07,11.51s1.5-3.32,5.75-7.11,6.78-7.11,6.78-7.11Z"/>
          <path class="cls-81" d="M349.38,142.11c-.9,11.56-2.53,24.34-4.17,31.28-.07,.27-.13,.53-.19,.78-.02,.08-.04,.16-.07,.25-.15,.6-.31,1.14-.46,1.62-3.9,12.13-13.49,17.44-20.57,20.97-8.56,4.26-8.19,4.04-13.27,6.32-4.56,2.04-9.74,1.94-10.74,1.89h-.17s-7.25,.38-12.33-1.89c-5.07-2.28-5.37-3.73-12.26-7.33-6.11-3.2-13.91-6.76-18.41-15.65-.66-1.32-1.25-2.75-1.76-4.31-1.94-6.05-4.02-21.62-4.99-35.5,0-.02,0-.04-.01-.05v-.04c-.98-13.93-.85-29.17,1.62-40.42,4.95-22.48,29.92-42.95,48.14-43.2,18.21,.25,43.19,20.72,48.13,43.2,2.58,11.7,2.61,27.71,1.51,42.08Z"/>
          <path class="cls-20" d="M254.21,100.24s5.48-18.08,21.39-24.62c15.92-6.54,18.05-4.96,22.07-6.35s6.65-4.25,6.65-4.25l-5.92,8.23s15-4.18,25.72,.76c16.87,7.77,20.77,26.23,20.77,26.23,0,0-6.2-36.97-33.61-42.9-27.41-5.94-39.16,11.2-49.77,21.45s-7.31,21.45-7.31,21.45Z"/>
          <path class="cls-73" d="M289.62,112.66s-2.08-7.44-6.02-10.23c0,0,.52,3.13,1.63,4.81,0,0-4.14-7.27-6.75-8.46s-4.12-.33-10.75-1.34c-7.07-1.07-7.96,1.05-10.61,3.7s-5.34,7.53-5.34,7.53c0,0,2.65-2.57,7.07-3.65,3.4-.83,11.62,3.07,17.02,4.31,6.64,1.53,10.5,.77,13.74,3.32Z"/>
          <path class="cls-4" d="M313.11,142.72s4.17,8.08,3.66,10.61-8.58,1.89-9.78,2.21-3.57,1.29-6.23,1.39c-2.66-.09-5.03-1.07-6.23-1.39-1.2-.32-9.26,.32-9.78-2.21s3.66-10.61,3.66-10.61c0,0-6.12,9.22-4.46,12.19,1.66,2.97,9.53,1.75,11.15,2.78,3.57,2.27,8.2,2.12,11.32,0,1.59-1.08,9.49,.19,11.15-2.78,1.66-2.97-4.46-12.19-4.46-12.19Z"/>
          <path class="cls-29" d="M296.34,155.67c-1.42-.71-4.59-4.07-7.25-3.84s-2.65,.33-.77,1.91,3.3,.08,4.67,.5,3.34,1.42,3.34,1.42Z"/>
          <path class="cls-29" d="M304.86,155.67c1.42-.71,4.59-4.07,7.25-3.84s2.65,.33,.77,1.91-3.3,.08-4.67,.5-3.34,1.42-3.34,1.42Z"/>
          <path class="cls-8" d="M286.59,146.61c-1.59,4.42,10.57,8.3,14.17,8.49s13.17-5.63,13.95-6.38-1.72-6.32-1.72-6.32c0,0,5.55,8.53,4.57,12.51s-10.79,7.55-17.77,6.92-15.1-4.14-16.65-6.66,3.44-8.56,3.44-8.56Z"/>
          <path class="cls-84" d="M282.26,175.18s4.25,2.98,8.16,3.36c3.92,.38,15.98-.46,19.71,.08s9.12-3.44,9.12-3.44c0,0-6.39-1.71-11.25-2.46s-19.96,.06-25.74,2.46Z"/>
          <path class="cls-67" d="M314.52,172.91c-3.57-2.37-7.55-4.64-8.78-4.64s-3.61,.85-4.98,.85-3.75-.85-4.98-.85-5.21,2.27-8.78,4.64-7.42,1.71-7.42,1.71c0,0,1.42,.6,2.68,.57,1.26-.03,2.97-1.04,5.78-1.33,5.15,1.17,9.85-.21,13.14-.22,3.07,0,5.87,1.07,12.29,.22,2.81,.28,4.52,1.29,5.78,1.33,1.26,.03,2.68-.57,2.68-.57,0,0-3.84,.66-7.42-1.71Z"/>
          <path class="cls-93" d="M351.58,111.71c-1.47,9-2.8,28.83-2.93,30.85,.11-2.08,1.18-23.22-.99-33.18-2.27-10.49-4.04-10.61-4.67-12.89-.14-.52-.28-1.35-.49-2.44-.71-3.6-2.3-9.95-8.23-16.76-7.7-8.84-12.25-10.99-20.84-10.35-6.49,.48-11.39,3.69-13.67,5.33h-.01c-.74,.55-1.19,.92-1.35,.98-.47,.19,2.82-6.15,8.22-10.19,0-.01,.01-.01,.01-.01,1.8-1.35,3.83-2.43,6.04-2.94,0,0-2.02-.78-3.91-.03-1.76,.71-3.75,4.9-12.55,6.11-.13,.03-.2,.04-.2,.04-.63,.08-1.32,.15-2.03,.2,0,0,4.77-1.64,8.17-4.14,.01,0,.01-.01,.02-.01,.04-.03,.09-.06,.13-.1-.28,.16-4.58,2.54-7.45,3.18-.1,.03-.2,.04-.29,.05-.15,.03-.29,.05-.42,.07-2.28,.27-2.73-.17-3.87-.22h0c-.15-.01-.31-.01-.5,0-.08,0-.16,.01-.23,.02-.13,.01-.26,.03-.41,.05-.97,.13-2.68,1.64-4.41,3.26-.05,.04-.1,.09-.15,.14-.02,.02-.04,.03-.05,.04l-.04,.04c-2.05,1.93-4.08,3.94-4.89,3.94-1.48,0,1.13-7.46,1.25-7.83-.46,.2-.96,.47-1.49,.77-2.15,1.18-6.3,3.78-10.58,8.06h0s-.02,.03-.02,.03c-4.84,4.84-9.84,11.85-12.28,21.45,0,0-2.77,4.93-4.67,12.76-1.89,7.83-1.71,26.91-1.71,26.91,0,0-.82-13.05-2.81-18.64-1.98-5.59,.1-27.72,.98-32.27,.89-4.55,14.28-11.12,22.99-17.05,8.72-5.94,5.43-6.07,12.38-11.75,6.95-5.69,18.57-8.59,24.63-4.3,6.07,4.3,22.68,16.3,29.5,22.36,6.82,6.06,8.71,4.74,10.99,8.34,2.27,3.6,4.39,20.64,2.84,30.12Z"/>
          <g>
            <path class="cls-74" d="M330.93,133.41c-7.49,1.8-10.94-1.47-11.51-1.8-.57-.33-1.09,0-1-.85,.05-.46,.66-3.1,2.28-5.75,.06-.11,.13-.22,.2-.33,1.14-1.77,2.73-3.49,4.91-4.53,2.68-1.28,5.91-1.18,8.72-.42,3.05,.83,5.61,2.44,6.44,3.92,1.61,2.84-2.56,7.96-10.04,9.76Z"/>
            <path class="cls-26" d="M316.78,125.48s1.83-6.06,9.25-9.28,13.03,2.27,14.28,4.88c0,0-2.93-8.15-12.62-6.63s-10.91,11.04-10.91,11.04Z"/>
            <path class="cls-80" d="M318.83,129.14s1.1,2.3,2.39,3.6c0,0-3.38-1.08-3.54-1.27s1.14-2.32,1.14-2.32Z"/>
            <g>
              <path class="cls-78" d="M336.39,124.79c0,4.33-3.52,7.85-7.85,7.85s-7.73-3.4-7.84-7.63c.06-.11,.13-.22,.2-.33,1.14-1.77,2.73-3.49,4.91-4.53,2.68-1.28,5.91-1.18,8.72-.42,.04,.05,.08,.09,.12,.14h.01c1.08,1.35,1.73,3.06,1.73,4.92Z"/>
              <circle class="cls-18" cx="328.54" cy="124.79" r="4.42"/>
              <path class="cls-32" d="M336.39,124.79c0,4.33-3.52,7.85-7.85,7.85s-7.73-3.4-7.84-7.63c.06-.11,.13-.22,.2-.33,.3,2.56,1.76,7.96,8.75,6.98,9.09-1.28,5-11.79,5-11.79h.01c1.08,1.35,1.73,3.06,1.73,4.92Z"/>
            </g>
            <path class="cls-86" d="M318.83,129.14s1.48-7.87,9.72-9.27c8.94-1.52,12.42,3.78,12.42,3.78,0,0,.57-2.91-3.74-4.69-2.9-1.2-9.79-3.13-14.45,.52-2.26,1.77-2.74,5.44-3.95,9.66Z"/>
            <path class="cls-75" d="M327.52,133.92s10.56-1.53,13.56-7.67c0,0,.24,6.85-13.56,7.67Z"/>
            <path class="cls-9" d="M318.83,129.14s2.66-5.05,9.72-7.13,12.7,2.39,12.7,2.39c0,0-1.01-4.8-10.39-5.11s-11.7,8.78-12.04,9.85Z"/>
            <path class="cls-64" d="M336.74,124.21c-2.29,.53-.63,2.28,.88,1.27s-.28-1.41-.88-1.27Z"/>
            <path class="cls-38" d="M318.41,131.78s1.69,3.64,11.29,4.28,11.29-9.06,11.29-9.06c0,0-1.98,4.61-8.99,5.99-7.01,1.39-12.86-.89-13.59-1.21Z"/>
          </g>
          <g>
            <path class="cls-94" d="M266.95,133.41c7.49,1.8,10.94-1.47,11.51-1.8,.57-.33,1.09,0,1-.85-.05-.46-.66-3.1-2.28-5.75-.06-.11-.13-.22-.2-.33-1.14-1.77-2.73-3.49-4.91-4.53-2.68-1.28-5.91-1.18-8.72-.42-3.05,.83-5.61,2.44-6.44,3.92-1.61,2.84,2.56,7.96,10.04,9.76Z"/>
            <path class="cls-39" d="M281.1,125.48s-1.83-6.06-9.25-9.28-13.03,2.27-14.28,4.88c0,0,2.93-8.15,12.62-6.63s10.91,11.04,10.91,11.04Z"/>
            <path class="cls-80" d="M279.05,129.14s-1.1,2.3-2.39,3.6c0,0,3.38-1.08,3.54-1.27s-1.14-2.32-1.14-2.32Z"/>
            <g>
              <path class="cls-77" d="M261.49,124.79c0,4.33,3.52,7.85,7.85,7.85s7.73-3.4,7.84-7.63c-.06-.11-.13-.22-.2-.33-1.14-1.77-2.73-3.49-4.91-4.53-2.68-1.28-5.91-1.18-8.72-.42-.04,.05-.08,.09-.12,.14h-.01c-1.08,1.35-1.73,3.06-1.73,4.92Z"/>
              <circle class="cls-18" cx="269.34" cy="124.79" r="4.42"/>
              <path class="cls-32" d="M261.49,124.79c0,4.33,3.52,7.85,7.85,7.85s7.73-3.4,7.84-7.63c-.06-.11-.13-.22-.2-.33-.3,2.56-1.76,7.96-8.75,6.98-9.09-1.28-5-11.79-5-11.79h-.01c-1.08,1.35-1.73,3.06-1.73,4.92Z"/>
            </g>
            <path class="cls-86" d="M279.05,129.14s-1.48-7.87-9.72-9.27c-8.94-1.52-12.42,3.78-12.42,3.78,0,0-.57-2.91,3.74-4.69,2.9-1.2,9.79-3.13,14.45,.52,2.26,1.77,2.74,5.44,3.95,9.66Z"/>
            <path class="cls-75" d="M270.36,133.92s-10.56-1.53-13.56-7.67c0,0-.24,6.85,13.56,7.67Z"/>
            <path class="cls-9" d="M279.05,129.14s-2.66-5.05-9.72-7.13-12.7,2.39-12.7,2.39c0,0,1.01-4.8,10.39-5.11s11.7,8.78,12.04,9.85Z"/>
            <path class="cls-64" d="M261.14,124.21c2.29,.53,.63,2.28-.88,1.27s.28-1.41,.88-1.27Z"/>
            <path class="cls-7" d="M279.47,131.78s-1.69,3.64-11.29,4.28-11.29-9.06-11.29-9.06c0,0,1.98,4.61,8.99,5.99,7.01,1.39,12.86-.89,13.59-1.21Z"/>
          </g>
          <path class="cls-40" d="M289.63,185.96s10.35-1.61,21.49,0c0,0,1.2-5.49-10.28-5.75s-11.22,5.75-11.22,5.75Z"/>
          <path class="cls-54" d="M311.16,112.66c-.83,2.22-2.21,12.12,1.77,18.28,0,0,3.56-12.94,11.73-15.67s11.55,.79,11.55,.79c0,0-2.94-3.77-12.48-2.25s1.14-5.81,10.17-7.2,6.19,10.39,4.8,10.34,2.27,3.55,3.66,8.54c0,0,7.91-12.76,4.68-16.8s-8.72-4.93-16.74-3.22-18.2,4.71-19.14,7.2Z"/>
          <path class="cls-27" d="M288.22,112.66c.83,2.22,2.21,12.12-1.77,18.28,0,0-3.56-12.94-11.73-15.67s-11.55,.79-11.55,.79c0,0,2.94-3.77,12.48-2.25s-1.14-5.81-10.17-7.2-6.19,10.39-4.8,10.34-2.27,3.55-3.66,8.54c0,0-7.91-12.76-4.68-16.8s8.72-4.93,16.74-3.22,18.2,4.71,19.14,7.2Z"/>
          <path class="cls-92" d="M309.21,112.66s2.08-7.44,6.02-10.23c0,0-.52,3.13-1.63,4.81,0,0,4.14-7.27,6.75-8.46s4.12-.33,10.75-1.34c7.07-1.07,7.96,1.05,10.61,3.7s5.34,7.53,5.34,7.53c0,0-2.65-2.57-7.07-3.65-3.4-.83-11.62,3.07-17.02,4.31-6.64,1.53-10.5,.77-13.74,3.32Z"/>
          <path class="cls-5" d="M289.62,112.66c-1.4,0,.69,12.62,1.71,13.13s13.42-1.38,18.91,1.21c0,0,.56-14.28,0-15.03s-15.62,2.58-20.61,.69Z"/>
          <path class="cls-6" d="M283.95,154.91c-1.08-.67,3.16-10.81,5.21-22.17s7.48-14,13.79-12.37,6.26,10.48,8.21,16.42c1.95,5.94,6.66,14.11,6.06,16.96s-9.48,3.31-10.8,3.95-4.08,1.52-6.68,1.2-5.13-1.52-6.33-1.89-7.18,.95-9.46-2.08Z"/>
          <path class="cls-19" d="M349.38,142.11c-1.03,13.25-3.02,28.11-4.89,33.93-3.9,12.13-13.49,17.44-20.57,20.97-8.56,4.26-8.19,4.04-13.27,6.32-4.56,2.04-9.74,1.94-10.74,1.89h-.17s-7.25,.38-12.33-1.89c-5.07-2.28-5.37-3.73-12.26-7.33-7.02-3.67-16.26-7.83-20.17-19.96-1.94-6.05-4.02-21.62-4.99-35.5,.31,1.89,7,38.18,16.61,48.35,5.31,5.62,13.49,8.37,19.42,10.9,4.25,1.8,9.47,2.06,12.11,2.06,1.04,0,1.68-.04,1.69-.04,.03,0,7.87,.5,13.79-2.02,5.94-2.53,13.61-4.04,18.93-9.66,8.56-9.07,15.66-41.34,16.84-48.02Z"/>
          <path class="cls-62" d="M310.49,102.93c-12.72-1.26-12.69-24.22,1.18-28.93s20.53,15.79,19.33,19.71-9.81,.25-20.51,9.22Z"/>
          <path class="cls-25" d="M290.99,201.22c-9.32-5.23,2.71-15.36,16.44-13.09,13.74,2.27,5.37,11.74-2.1,13.54s-14.34-.45-14.34-.45Z"/>
          <path class="cls-59" d="M253.72,144.74c-3.59,2.69-.98,21.3,7.77,26.68s18.48-15.94,19.61-22.76c1.13-6.82-19.26-9.99-27.38-3.92Z"/>
          <path class="cls-59" d="M319.44,144.3c1.12-4.03,25.38-6.37,27.6,1.52,2.22,7.88-3.29,24.49-10.65,26.63s-18.58-22.27-16.95-28.14Z"/>
          <path class="cls-11" d="M342.5,94.05c-.71-3.6-2.3-9.95-8.23-16.76-7.7-8.84-12.25-10.99-20.84-10.35-6.49,.48-11.39,3.69-13.67,5.33,.47-.6,8.18-10.38,18.09-10.1,10.24,.28,14.31,8.71,18.95,11.93,4.64,3.23,5.7,19.95,5.7,19.95Z"/>
          <path class="cls-52" d="M316.12,58.77s-2.43,.9-3.45,1.34c0,0-2.02-.78-3.91-.03-1.76,.71-3.75,4.9-12.55,6.11,.93-.21,4.9-1.24,8.82-4.5,4.49-3.72,6.63-5.36,7.77-5.18,1.14,.19,3.32,2.26,3.32,2.26Z"/>
          <path class="cls-47" d="M290.26,65.26s6.63-1.5,11.43-3.51,6.82-3.84,6.82-3.84c0,0-1.53,1.62-6.35,4.38s-8.35,3.91-11.9,2.97Z"/>
          <path class="cls-31" d="M284.47,68.81s3.5-4.6,10.89-8.01,12.84-5.97,12.84-5.97c0,0-4.22,3.99-10.42,7.34s-7.63,2.98-8.65,3.16-4.65,3.48-4.65,3.48Z"/>
          <path class="cls-34" d="M280.84,64.91s2.72-9.36,8.08-12.25c0,0-3.67,1.47-9.22,6.82s-10.97,14.29-10.97,14.29c0,0,7.75-6.9,12.11-8.86Z"/>
          <path class="cls-51" d="M253.24,102.93s-.61-17.46,6.42-26.08c0,0-7.08,3.13-8.88,17.2-1.8,14.06,.62,15.91,.62,15.91l1.85-7.02Z"/>
          <path class="cls-24" d="M250.72,115.59s-4.3-10.42-2.69-23.39c0,0-1.95,8.53-.36,18.19s3.05,9.48,3.05,9.48v-4.28Z"/>
          <path class="cls-43" d="M345.95,102.93s3.69-11.59,1.86-20.12c0,0,4.06,10.43-.68,24.26l-1.18-4.14Z"/>
          <path class="cls-3" d="M256.18,101.2c-1.28,1.42,.62-6.54,3.48-13.99,2.86-7.45,12-15.92,12-15.92,0,0-8.38,22.68-8.7,24.14s-3.98,2.65-6.79,5.78Z"/>
          <path class="cls-63" d="M290.04,174.19c-1.7-.28,3.45-4.33,5.55-4.97s4.31,.44,4.93,.41,3.47-.92,6.12-.28,5.73,3.81,5.68,4.23-7.77,.32-10.48-.25-5.87,1.86-11.81,.87Z"/>
          <path class="cls-53" d="M313.47,173.86s1.95,.43,5.05,.65,5.6-1.53,5.6-1.53c0,0-2.69,3.2-4.23,3.36s-1.02-.83-3.01-1.42-3.41-1.06-3.41-1.06Z"/>
          <path class="cls-13" d="M287,173.86s-1.95,.43-5.05,.65-5.6-1.53-5.6-1.53c0,0,2.69,3.2,4.23,3.36s1.02-.83,3.01-1.42,3.41-1.06,3.41-1.06Z"/>
          <path class="cls-56" d="M294.12,178.19c-3.88-1.04,1.14-4.5,7.67-4.07s10.71-.19,12.79,.81-.19,3.02-4.12,3.27-15.49,.23-16.34,0Z"/>
          <path class="cls-21" d="M282.55,175.38s3.75-1.21,7.28-.94,7.77-.82,11.85-.61,9.82,.66,12.22,.56,4.52,.61,4.52,.61c0,0-4.59-1.61-4.95-1.61s-4.84,.57-8.47,.3-5.03-.3-7.46,.14-9.31-.16-9.41-.22-4.61,.95-5.58,1.77Z"/>
          <path class="cls-15" d="M312.38,111.11s5.43-9.72,9.22-11.57,7.84-1.87,7.84-1.87c0,0-4.65,.35-8.31,3.69,0,0,8.77-3.82,11.39-4.1s5.11,.45,5.11,.45c0,0-1.89-1.16-9.51,4.34s-6.57,6.89-8.38,7.53-5.7,.91-7.37,1.53Z"/>
          <path class="cls-22" d="M286.46,111.11s-5.1-11.24-7.52-12.07-7.8-1.18-7.8-1.18c0,0,3.84,.17,6.31,1.78s3.88,5.78,3.88,5.78c0,0-4.63-4.69-7.58-5.95s-6.67-2.11-6.67-2.11c0,0,6.16,3.68,9.4,7.28s4.17,5.32,4.17,5.32c0,0,5.5,1.06,5.8,1.15Z"/>
          <path class="cls-55" d="M321.13,83.2c-2.23,3.79,2.69,5.49,4.78,3.13s-2.83-6.44-4.78-3.13Z"/>
          <path class="cls-30" d="M318.95,176.22c2.31,1.21,4.84,5.19,7.46,8.22,2.62,3.03,6.25-1.3,4.72-5.77s-8.24-3.8-9.67-4.01-4.68-.59-4.68-.59l2.18,2.15Z"/>
          <path class="cls-45" d="M282.36,176.22c-2.31,1.21-4.84,5.19-7.46,8.22s-6.25-1.3-4.72-5.77,8.24-3.8,9.67-4.01,4.68-.59,4.68-.59l-2.18,2.15Z"/>
          <path class="cls-42" d="M327.52,107.99s-9.85,3.87-10.75,11.18c0,0-3.28,8.65-3.47,13.01s-1.42-9.1-11.84-9.95-12.13,10.83-13.26,11.72-1.76-11.38-13.09-17.72c0,0,2.34-3.92-7.15-9.36,0,0,6.88,1.94,12.69,3.1s9.6,2.71,9.6,2.71c0,0,2.03-4.67,10.27-4.55s9.71,3.86,9.71,3.86c0,0,3.08-2.84,17.29-3.98Z"/>
          <path class="cls-1" d="M314.21,137.86s2.63,7.09,18.15,6.84,17.31-6.84,17.31-6.84c0,0-3.1,1.35-15.79,2.06s-19.67-2.07-19.67-2.07Z"/>
          <path class="cls-36" d="M249.36,137.86s2.63,7.09,18.15,6.84,17.31-6.84,17.31-6.84c0,0-3.1,1.35-15.79,2.06s-19.67-2.07-19.67-2.07Z"/>
          <g>
            <g>
              <path class="cls-58" d="M354.55,130.09c-.68,2.47-1.51,4.62-2.44,6-3.64,5.43-33.88,6.13-37.9,1.77-.73-.79-1.39-2.03-1.97-3.56-.01-.01-.01-.02-.01-.02-2.63-6.89-3.6-19.35-1.49-20.02,10.52-3.33,41.18-5.43,44.2-3.15,2.25,1.7,1.6,11.73-.39,18.98Z"/>
              <path class="cls-71" d="M354.94,111.11c-3.02-2.28-33.68-.18-44.2,3.15-2.11,.67-1.14,13.13,1.49,20.02,0,0,0,.01,.01,.02,.58,1.53,1.24,2.77,1.97,3.56,4.02,4.36,34.26,3.66,37.9-1.77,.93-1.38,1.76-3.53,2.44-6,1.99-7.25,2.64-17.28,.39-18.98Zm-8.35,24.98c-9.09,4.4-30.16,2.75-32.91-1.81-3.3-5.49-3-15.8,.52-18.71s34.45-4.31,39.14-2.13,2.33,18.26-6.76,22.65Z"/>
              <path class="cls-12" d="M354.55,130.09c-.68,2.47-1.51,4.62-2.44,6-3.64,5.43-33.88,6.13-37.9,1.77-.73-.79-1.39-2.03-1.97-3.56,.1,.17,1.07,2.36,4.54,3.8,2.94,1.22,7.66,1.71,15.16,1.85,8.12,.15,14.21-1.53,17.83-3.86s4.78-6,4.78-6Z"/>
              <path class="cls-60" d="M312.1,133.92s-.22,.8-1.71,0-4.02-17.53-1.94-20.44,43.86-5.49,47.92-4.17,3.26,6.57,0,8.06c0,0,.87-4.41-1.42-5.51s-37.67-.59-42.57,3.26c-3.47,2.73-.69,17.74-.28,18.8Z"/>
              <path class="cls-72" d="M309.01,127.88c.38,.57,.51-10.93,2.72-13.26s33.32-3.81,35.07-4.23-5.29-1.26-18.67,0c-13.38,1.26-18.94,2.56-19.84,4.17s-.58,11.35,.73,13.33Z"/>
              <path class="cls-88" d="M310.34,113.51c-.63,.59,1.96,.88,3.09,.09s-2.18-.95-3.09-.09Z"/>
              <path class="cls-88" d="M354.86,109.72c-1.24,.23-.76,1.27,.84,1.17s.24-1.37-.84-1.17Z"/>
              <path class="cls-68" d="M320.56,129.14c-15.19,5.03-.87,12.68,17.7,9.78s13.29-11.03,10.74-11.81-24.59,.74-28.44,2.02Z"/>
            </g>
            <g>
              <path class="cls-57" d="M244.72,130.09c.68,2.47,1.51,4.62,2.44,6,3.64,5.43,33.88,6.13,37.9,1.77,.73-.79,1.39-2.03,1.97-3.56,.01-.01,.01-.02,.01-.02,2.63-6.89,3.6-19.35,1.49-20.02-10.52-3.33-41.18-5.43-44.2-3.15-2.25,1.7-1.6,11.73,.39,18.98Z"/>
              <path class="cls-69" d="M244.33,111.11c3.02-2.28,33.68-.18,44.2,3.15,2.11,.67,1.14,13.13-1.49,20.02,0,0,0,.01-.01,.02-.58,1.53-1.24,2.77-1.97,3.56-4.02,4.36-34.26,3.66-37.9-1.77-.93-1.38-1.76-3.53-2.44-6-1.99-7.25-2.64-17.28-.39-18.98Zm8.35,24.98c9.09,4.4,30.16,2.75,32.91-1.81,3.3-5.49,3-15.8-.52-18.71s-34.45-4.31-39.14-2.13-2.33,18.26,6.76,22.65Z"/>
              <path class="cls-12" d="M244.72,130.09c.68,2.47,1.51,4.62,2.44,6,3.64,5.43,33.88,6.13,37.9,1.77,.73-.79,1.39-2.03,1.97-3.56-.1,.17-1.07,2.36-4.54,3.8-2.94,1.22-7.66,1.71-15.16,1.85-8.12,.15-14.21-1.53-17.83-3.86s-4.78-6-4.78-6Z"/>
              <path class="cls-60" d="M287.17,133.92s.22,.8,1.71,0,4.02-17.53,1.94-20.44-43.86-5.49-47.92-4.17-3.26,6.57,0,8.06c0,0-.87-4.41,1.42-5.51s37.67-.59,42.57,3.26c3.47,2.73,.69,17.74,.28,18.8Z"/>
              <path class="cls-72" d="M290.26,127.88c-.38,.57-.51-10.93-2.72-13.26s-33.32-3.81-35.07-4.23,5.29-1.26,18.67,0c13.38,1.26,18.94,2.56,19.84,4.17s.58,11.35-.73,13.33Z"/>
              <path class="cls-88" d="M288.93,113.51c.63,.59-1.96,.88-3.09,.09s2.18-.95,3.09-.09Z"/>
              <path class="cls-88" d="M244.4,109.72c1.24,.23,.76,1.27-.84,1.17s-.24-1.37,.84-1.17Z"/>
              <path class="cls-68" d="M278.71,129.14c15.19,5.03,.87,12.68-17.7,9.78s-13.29-11.03-10.74-11.81,24.59,.74,28.44,2.02Z"/>
            </g>
            <path class="cls-60" d="M291.47,120.43s9.14-3.33,16.18-.05v-2.58s-6.14-4.91-16.18,.01v2.62Z"/>
            <path class="cls-72" d="M292.91,117.37c-1.78,1.09,2.79,1.05,7.27,.86s6.58,.59,6.89,.36-1.67-2.68-5.98-2.77-8.19,1.56-8.19,1.56Z"/>
          </g>
          <path class="cls-10" d="M281.67,206.73c-.83,.38,8.72,17.7,16.08,20.28,7.35,2.58,11.85-2.71,11.85-2.71,0,0-13.99,3.49-27.92-17.57Z"/>
          <path class="cls-62" d="M297.75,152.88c-6.15-2.06-3.31-7.9,1.53-12.43s11,2.09,11.76,6.12-7.63,8.2-13.29,6.31Z"/>
          <path class="cls-70" d="M304.12,143.54c-.93,.84-.35,3,1.21,2.59s.31-3.95-1.21-2.59Z"/>
          <path class="cls-2" d="M296.7,167.51s4.06,1.61,7.37,.3c2.77-1.09,0-8.98,0-8.98,0,0-2.81,1.11-6.32,.13,0,0-2.88,4.45-1.05,8.55Z"/>
          <path class="cls-14" d="M316.12,148.19s3.66,3.48,7.39,11.15,3.44,11.85,2.31,12.08-9.17-14.83-9.17-14.83c0,0,2.96-3.24-.52-8.39Z"/>
          <path class="cls-16" d="M285.43,148.19s-3.66,3.48-7.39,11.15c-3.73,7.67-3.44,11.85-2.31,12.08s9.17-14.83,9.17-14.83c0,0-2.96-3.24,.52-8.39Z"/>
          <path class="cls-50" d="M344.95,174.42c-.15,.6-.31,1.14-.46,1.62-3.9,12.13-13.49,17.44-20.57,20.97-8.56,4.26-8.19,4.04-13.27,6.32-4.56,2.04-9.74,1.94-10.74,1.89h-.17s-7.25,.38-12.33-1.89c-5.07-2.28-5.37-3.73-12.26-7.33-6.11-3.2-13.91-6.76-18.41-15.65l.14-.15c4.04,6.19,10.86,11.9,21.18,16.75,11.63,5.46,20.71,8.28,30.19,5.68,15.4-4.23,23.11-10.99,26.4-13.17,3.08-2.04,8.74-9.73,10.3-15.04Z"/>
          <path class="cls-66" d="M250.16,283.07c-41.82-3.71-17.97,53.93,8.44,56.36,26.41,2.43,56.54-36.19,58.18-39.98s-24.8,1.35-66.62-16.38Z"/>
          <path class="cls-66" d="M316.78,349.15c-5.36-.44,32.53-33.76,49.2-51.96,16.67-18.2,42.44,19.5,45.09,35.89s-80.22,19.54-94.3,16.07Z"/>
          <path class="cls-66" d="M276.35,275.82c-.81-2.55,15.47,1.27,38.44-5.17,22.97-6.44,31.17-12.93,32.75-12.34s1.2,16.17-27.5,23.54c-28.71,7.37-43.69-6.03-43.69-6.03Z"/>
          <path class="cls-61" d="M320.03,323.44c-7.49,0,12.72-19.12,21.5-26.55,8.78-7.42,15.12-8.48,15.12-8.48,0,0-20.8,26.18-36.62,35.03Z"/>
          <path class="cls-61" d="M256.05,275.29c-2.05-1.8,16.61,.47,29.97,5.12,13.36,4.64,17.36,10.52,16.92,11.27s-25.31,2.97-46.89-16.39Z"/>
          <path class="cls-62" d="M309.53,161.42c-2.58,1.23,1.96,8.29,5.84,11.03s8.53,.5,8.76-1.03-7.68-13.98-7.68-13.98l-6.92,3.98Z"/>
          <path class="cls-62" d="M307.77,179.76c-.28-.06,4.23,3.56,9,3.31s3.16-5.01,2.67-5.93-6.59,2.96-11.67,2.62Z"/>
          <path class="cls-62" d="M309.53,161.42c-.73,1.12,3.91,6.83,8.15,5.97s-1.23-9.95-1.23-9.95c0,0-3.4,2.75-6.92,3.98Z"/>
        </g>
      </g>
    </g>
  </g>
</svg>